<?xml version="1.0" encoding="UTF-8" standalone="no"?><svg xmlns:svg="http://www.w3.org/2000/svg" xmlns="http://www.w3.org/2000/svg" version="1.1" style="overflow:visible" viewBox="-250 -250 500 500" height="2000px" width="2000px"><rect fill-opacity="0" fill="rgb(0,0,0)" height="500" width="500" y="-250" x="-250" /><svg version="1.1" y="-250" x="-250" viewBox="-250 -250 500 500" height="500px" width="500px" style="overflow:visible"><g transform="rotate(0,0,0)" stroke-linejoin="round" fill="#fff"><path stroke-linecap="butt" stroke-linejoin="round" stroke="none" fill="rgb(102,102,102)" d="m-195-120.741001h87.4886l54.5042 119.63l-54.5042 121.851h-87.4886z" /><path stroke-linecap="butt" stroke-linejoin="round" stroke="none" fill="rgb(255,255,255)" d="m-178.6443-101.475h29.5761v6.36343h-29.5761z" /><path stroke-linecap="butt" stroke-linejoin="round" stroke="none" fill="rgb(253,160,255)" d="m-165.1353-38.294001h22.5986v6.36344h-22.5986zm0-12.6362h43.9191v6.36343h-43.9191zm0-12.6362h32.2905v6.36343h-32.2905zm0-12.6362h25.7002v6.36342h-25.7002zm0-12.6362h36.5546v6.36344h-36.5546z" /><path stroke-linecap="butt" stroke-linejoin="round" stroke="none" fill="rgb(255,255,255)" d="m-178.6443-9.406001h29.5761v6.36343h-29.5761z" /><path stroke-linecap="butt" stroke-linejoin="round" stroke="none" fill="rgb(138,252,255)" d="m-165.1353 53.774999h28.8539v6.36342h-28.8539zm0-12.6362h40.0966v6.36343h-40.0966zm0-12.6362h22.5601v6.36343h-22.5601zm0-12.6362h34.0405v6.36343h-34.0405zm0-12.6362h30.6469v6.36342h-30.6469z" /><path stroke-linecap="butt" stroke-linejoin="round" stroke-width="10" stroke-opacity="1" stroke="rgb(68,68,68)" fill="none" d="m-195-120.741001h87.4886l54.5042 119.63l-54.5042 121.851h-87.4886z" /><path stroke-linecap="butt" stroke-linejoin="round" stroke="none" fill="rgb(102,102,102)" d="m-107.507-120.741001h302.507v241.481h-302.507z" /><path stroke-linecap="butt" stroke-linejoin="round" stroke="none" fill="rgb(81,255,66)" d="m-33.827-69.312001h35.4848v6.36343h-35.4848zm-36.1776 0h29.576v6.36343h-29.576z" /><path stroke-linecap="butt" stroke-linejoin="round" stroke="none" fill="rgb(255,255,255)" d="m-33.827-85.394h29.576v6.36344h-29.576zm-36.1776 0h29.576v6.36344h-29.576z" /><path stroke-linecap="butt" stroke-linejoin="round" stroke="none" fill="rgb(253,160,255)" d="m-33.827-101.475h41.3937v6.36343h-41.3937zm-36.1776 0h29.576v6.36343h-29.576z" /><path stroke-linecap="butt" stroke-linejoin="round" stroke="none" fill="rgb(138,252,255)" d="m-70.005 27.526999h29.9315v6.36343h-29.9315z" /><path stroke-linecap="butt" stroke-linejoin="round" stroke="none" fill="rgb(253,160,255)" d="m20.122999-36.821h23.074v6.36343h-23.074zm-38.5662 0h31.094v6.36343h-31.094zm-51.5611 0h44.8429v6.36343h-44.8429z" /><path stroke-linecap="butt" stroke-linejoin="round" stroke="none" fill="rgb(255,255,255)" d="m-46.324001 11.435h125.048v6.36342h-125.048z" /><path stroke-linecap="butt" stroke-linejoin="round" stroke="none" fill="rgb(255,234,134)" d="m-46.324001-4.647h38.3771v6.36342h-38.3771zm44.9164 0h43.0747v6.36342h-43.0747z" /><path stroke-linecap="butt" stroke-linejoin="round" stroke="none" fill="rgb(81,255,66)" d="m-46.324001-20.728001h101.746v6.36343h-101.746z" /><path stroke-linecap="butt" stroke-linejoin="round" stroke="none" fill="rgb(138,252,255)" d="m-43.256 43.608999h35.692v6.36343h-35.692zm-26.7484 0h21.4983v6.36343h-21.4983z" /><path stroke-linecap="butt" stroke-linejoin="round" stroke="none" fill="rgb(255,234,134)" d="m-23.051 59.69h87.8203v6.36342h-87.8203zm-46.954 0h41.2511v6.36342h-41.2511z" /><path stroke-linecap="butt" stroke-linejoin="round" stroke="none" fill="rgb(81,255,66)" d="m-70.005 75.783h66.0322v6.36343h-66.0322z" /><path stroke-linecap="butt" stroke-linejoin="round" stroke="none" fill="rgb(255,255,255)" d="m-79.276001-109.567h3.32424v219.133h-3.32424z" /><path stroke-linecap="butt" stroke-linejoin="round" stroke="none" fill="rgb(255,255,255)" d="m-95.984001 91.863999h10.7596v6.36343h-10.7596zm0.00002-16.084801h10.7596v6.36343h-10.7596zm0.00001-16.084801h10.7596v6.36343h-10.7596zm0.00001-16.084801h10.7596v6.36343h-10.7596zm0-16.084801h10.7596v6.36345h-10.7596zm0.00001-16.084801h10.7596v6.36343h-10.7596zm0.00001-16.084801h10.7596v6.36341h-10.7596zm0.00001-16.084801h10.7596v6.36342h-10.7596zm0.00001-16.084801h10.7596v6.36342h-10.7596zm0-16.084801h10.7596v6.36341h-10.7596zm0-16.084801h10.7596v6.36343h-10.7596zm0-16.084801h10.7596v6.36343h-10.7596zm0-16.084801h10.7596v6.36343h-10.7596z" /><path stroke-linecap="butt" stroke-linejoin="round" stroke-width="10" stroke-opacity="1" stroke="rgb(68,68,68)" fill="none" d="m-107.507-120.741001h302.507v241.481h-302.507z" /></g></svg></svg>